<svg width="20" height="20" viewBox="0 0 20 20" fill="none" xmlns="http://www.w3.org/2000/svg">
<path fill-rule="evenodd" clip-rule="evenodd" d="M6.42857 2.14282C5.72096 2.14282 5.16776 2.57304 4.8241 3.08852C4.47711 3.60899 4.28571 4.28688 4.28571 4.99997C4.28571 5.71305 4.47711 6.39094 4.8241 6.91141C5.16776 7.42689 5.72096 7.85711 6.42857 7.85711C7.13619 7.85711 7.68939 7.42689 8.03304 6.91141C8.38003 6.39094 8.57143 5.71305 8.57143 4.99997C8.57143 4.28688 8.38003 3.60899 8.03304 3.08852C7.68939 2.57304 7.13619 2.14282 6.42857 2.14282ZM13.5714 2.14282C12.8638 2.14282 12.3106 2.57304 11.967 3.08852C11.62 3.60899 11.4286 4.28688 11.4286 4.99997C11.4286 5.71305 11.62 6.39094 11.967 6.91141C12.3106 7.42689 12.8638 7.85711 13.5714 7.85711C14.279 7.85711 14.8323 7.42689 15.1759 6.91141C15.5229 6.39094 15.7143 5.71305 15.7143 4.99997C15.7143 4.28688 15.5229 3.60899 15.1759 3.08852C14.8323 2.57304 14.279 2.14282 13.5714 2.14282ZM2.14286 8.57139C1.43524 8.57139 0.882039 9.00161 0.538383 9.51709C0.191399 10.0376 0 10.7155 0 11.4285C0 12.1416 0.191399 12.8195 0.538383 13.34C0.882039 13.8555 1.43524 14.2857 2.14286 14.2857C2.85047 14.2857 3.40367 13.8555 3.74733 13.34C4.09431 12.8195 4.28571 12.1416 4.28571 11.4285C4.28571 10.7155 4.09431 10.0376 3.74733 9.51709C3.40367 9.00161 2.85047 8.57139 2.14286 8.57139ZM10 8.57139C8.2845 8.57139 7.01606 9.49096 6.20377 10.6322C5.40271 11.7577 5 13.1527 5 14.2857C5 15.6058 5.79326 16.5235 6.7655 17.0748C7.72334 17.6181 8.92369 17.8571 10 17.8571C11.0763 17.8571 12.2767 17.6181 13.2345 17.0748C14.2067 16.5235 15 15.6058 15 14.2857C15 13.1527 14.5973 11.7577 13.7962 10.6322C12.9839 9.49096 11.7155 8.57139 10 8.57139ZM17.8571 8.57139C17.1496 8.57139 16.5963 9.00161 16.2527 9.51709C15.9057 10.0376 15.7143 10.7155 15.7143 11.4285C15.7143 12.1416 15.9057 12.8195 16.2527 13.34C16.5963 13.8555 17.1496 14.2857 17.8571 14.2857C18.5647 14.2857 19.118 13.8555 19.4616 13.34C19.8086 12.8195 20 12.1416 20 11.4285C20 10.7155 19.8086 10.0376 19.4616 9.51709C19.118 9.00161 18.5647 8.57139 17.8571 8.57139Z" fill="#9282FA"/>
</svg>
