<svg width="20" height="18" viewBox="0 0 20 18" fill="none" xmlns="http://www.w3.org/2000/svg">
<path d="M16.6489 8.70156V13.9892C16.6489 14.6946 16.3687 15.371 15.8699 15.8698C15.3711 16.3686 14.6947 16.6488 13.9893 16.6488H6.01045C5.30508 16.6488 4.62859 16.3686 4.12982 15.8698C3.63104 15.371 3.35083 14.6946 3.35083 13.9892V8.70156L8.00516 2.68584H11.9946L16.6489 8.70156Z" fill="#9282FA" fill-opacity="0.4"/>
<path d="M19.2844 9.08554L17.9197 1.77159C17.8864 1.59331 17.8169 1.42374 17.7156 1.2733C17.6143 1.12286 17.4833 0.994725 17.3306 0.896793C17.1779 0.798861 17.0069 0.733193 16.8278 0.703824C16.6489 0.674463 16.4658 0.682011 16.2898 0.726031L16.2641 0.733512L11.899 2.02093H8.10072L3.73562 0.737668L3.70985 0.730187C3.5339 0.686168 3.35081 0.678612 3.17183 0.707981C2.99285 0.737349 2.82177 0.803018 2.66911 0.900949C2.51645 0.998881 2.38544 1.12701 2.28413 1.27745C2.18282 1.42789 2.11335 1.59746 2.08001 1.77575L0.715295 9.08554C0.656937 9.37826 0.700259 9.68221 0.838083 9.94701C0.975914 10.2117 1.20001 10.4216 1.47328 10.5417C1.64829 10.622 1.83844 10.6639 2.03097 10.6647C2.26142 10.6646 2.48761 10.6026 2.6859 10.4852V13.9892C2.6859 14.871 3.03617 15.7165 3.65963 16.34C4.2831 16.9635 5.12871 17.3137 6.01042 17.3137H13.9893C14.871 17.3137 15.7166 16.9635 16.34 16.34C16.9636 15.7165 17.3138 14.871 17.3138 13.9892V10.486C17.5119 10.6032 17.7378 10.6652 17.9679 10.6655C18.1606 10.6649 18.3511 10.6233 18.5264 10.5433C18.8 10.4232 19.0243 10.2131 19.1622 9.94792C19.3 9.68279 19.3432 9.37851 19.2844 9.08554ZM2.021 9.33488L3.38655 2.02093L6.88311 3.04904L2.021 9.33488ZM13.9893 15.9839H10.6648V14.9292L11.8001 13.7947C11.9248 13.67 11.9949 13.5008 11.9949 13.3243C11.9949 13.1478 11.9248 12.9786 11.8001 12.8539C11.6753 12.7291 11.5061 12.6591 11.3297 12.6591C11.1532 12.6591 10.984 12.7291 10.8592 12.8539L9.99985 13.7141L9.14047 12.8539C9.01571 12.7291 8.84649 12.6591 8.67005 12.6591C8.4936 12.6591 8.32438 12.7291 8.19963 12.8539C8.07487 12.9786 8.00473 13.1479 8.00473 13.3243C8.00473 13.5007 8.07487 13.67 8.19963 13.7947L9.33495 14.9292V15.9839H6.01042C5.48139 15.9839 4.97403 15.7737 4.59995 15.3997C4.22587 15.0256 4.01571 14.5182 4.01571 13.9892V8.92846L8.33178 3.35074H11.6679L15.984 8.92846V13.9892C15.984 14.5182 15.7738 15.0256 15.3997 15.3997C15.0257 15.7737 14.5183 15.9839 13.9893 15.9839ZM17.9787 9.33488L13.1166 3.04904L16.6132 2.02093L17.9787 9.33488ZM8.00514 10.3322C8.00514 10.5295 7.94663 10.7223 7.83709 10.8863C7.72746 11.0503 7.57169 11.1782 7.38945 11.2537C7.20721 11.3292 7.00667 11.3489 6.8132 11.3104C6.61974 11.2719 6.44203 11.1769 6.30254 11.0374C6.16306 10.898 6.06807 10.7203 6.02959 10.5268C5.99111 10.3333 6.01085 10.1328 6.08634 9.95057C6.16183 9.76831 6.28967 9.61256 6.45368 9.50293C6.6177 9.39339 6.81052 9.33488 7.00778 9.33488C7.27229 9.33488 7.52598 9.43994 7.713 9.62702C7.90009 9.81403 8.00514 10.0677 8.00514 10.3322ZM13.9893 10.3322C13.9893 10.5295 13.9308 10.7223 13.8212 10.8863C13.7116 11.0503 13.5558 11.1782 13.3736 11.2537C13.1913 11.3292 12.9908 11.3489 12.7974 11.3104C12.6039 11.2719 12.4262 11.1769 12.2867 11.0374C12.1472 10.898 12.0522 10.7203 12.0137 10.5268C11.9752 10.3333 11.995 10.1328 12.0705 9.95057C12.146 9.76831 12.2738 9.61256 12.4378 9.50293C12.6018 9.39339 12.7947 9.33488 12.9919 9.33488C13.2565 9.33488 13.5101 9.43994 13.6971 9.62702C13.8842 9.81403 13.9893 10.0677 13.9893 10.3322Z" fill="#9282FA"/>
</svg>
