<svg width="20" height="20" viewBox="0 0 20 20" fill="none" xmlns="http://www.w3.org/2000/svg">
<g clip-path="url(#clip0_3128_723)">
<path d="M9.99986 19.3099C15.1416 19.3099 19.3098 15.1417 19.3098 9.99998C19.3098 9.56924 18.6642 9.49799 18.4413 9.86667C17.3816 11.6204 15.4569 12.793 13.2584 12.793C9.91618 12.793 7.20686 10.0837 7.20686 6.74148C7.20686 4.54295 8.3794 2.61817 10.1332 1.55844C10.5019 1.33567 10.4306 0.690063 9.99986 0.690063C4.85815 0.690063 0.689941 4.85827 0.689941 9.99998C0.689941 15.1417 4.85815 19.3099 9.99986 19.3099Z" fill="#F0DC02"/>
<path d="M17.3547 0.976073C17.2049 0.594727 16.6672 0.594727 16.5174 0.976073L16.1167 1.99574C16.071 2.11219 15.9792 2.20434 15.8632 2.25026L14.8472 2.65243C14.4673 2.80276 14.4673 3.34244 14.8472 3.49286L15.8632 3.89503C15.9792 3.94094 16.071 4.03309 16.1167 4.14947L16.5174 5.16921C16.6672 5.55048 17.2049 5.55048 17.3547 5.16921L17.7555 4.14947C17.8011 4.03309 17.893 3.94094 18.009 3.89503L19.025 3.49286C19.4049 3.34244 19.4049 2.80276 19.025 2.65243L18.009 2.25026C17.893 2.20434 17.8011 2.11219 17.7555 1.99574L17.3547 0.976073Z" fill="#756E1B"/>
<path d="M13.7544 6.39654C13.6045 6.0152 13.0669 6.0152 12.917 6.39654L12.7709 6.76831C12.7252 6.88477 12.6334 6.97691 12.5174 7.02283L12.147 7.16945C11.7671 7.31987 11.7671 7.85946 12.147 8.00988L12.5174 8.1565C12.6334 8.20241 12.7252 8.29457 12.7709 8.41102L12.917 8.78279C13.0669 9.16413 13.6045 9.16413 13.7544 8.78279L13.9005 8.41102C13.9462 8.29457 14.038 8.20241 14.154 8.1565L14.5245 8.00988C14.9044 7.85946 14.9044 7.31987 14.5245 7.16945L14.154 7.02283C14.038 6.97691 13.9462 6.88477 13.9005 6.76831L13.7544 6.39654Z" fill="#756E1B"/>
</g>
<defs>
<clipPath id="clip0_3128_723">
<rect width="20" height="20" fill="white"/>
</clipPath>
</defs>
</svg>
