<svg width="20" height="20" viewBox="0 0 20 20" fill="none" xmlns="http://www.w3.org/2000/svg">
<g clip-path="url(#clip0_3112_673)">
<path d="M19.31 11.862V10.0001C19.31 9.21889 19.307 7.82643 19.2951 7.20703H0.699362C0.687328 7.82643 0.690337 9.21889 0.690337 10.0001V11.862C0.690337 15.373 0.690337 17.1284 1.7811 18.2192C2.87177 19.31 4.6273 19.31 8.13818 19.31H11.8622C15.3731 19.31 17.1287 19.31 18.2193 18.2192C19.31 17.1284 19.31 15.373 19.31 11.862Z" fill="#9282FA" fill-opacity="0.4"/>
<path d="M5.28965 0.690186C5.67678 0.690186 5.99067 0.991969 5.99067 1.36429V2.72421C6.61245 2.71266 7.30943 2.71266 8.09366 2.71266H11.8325C12.6166 2.71266 13.3136 2.71266 13.9354 2.72421V1.36429C13.9354 0.991969 14.2493 0.690186 14.6365 0.690186C15.0236 0.690186 15.3375 0.991969 15.3375 1.36429V2.78391C16.6828 2.88746 17.5659 3.14174 18.2148 3.76573C18.8636 4.38972 19.1281 5.2391 19.2358 6.53284L19.31 7.20703H0.690308V6.53284C0.798053 5.2391 1.06247 4.38972 1.71132 3.76573C2.36017 3.14174 3.24335 2.88746 4.58863 2.78391V1.36429C4.58863 0.991969 4.90253 0.690186 5.28965 0.690186Z" fill="#9282FA"/>
</g>
<defs>
<clipPath id="clip0_3112_673">
<rect width="20" height="20" fill="white"/>
</clipPath>
</defs>
</svg>
