<svg width="20" height="20" viewBox="0 0 20 20" fill="none" xmlns="http://www.w3.org/2000/svg">
<g clip-path="url(#clip0_3112_676)">
<path d="M10 19.3099C15.1417 19.3099 19.31 15.1417 19.31 9.99994C19.31 4.85815 15.1417 0.689941 10 0.689941C4.85821 0.689941 0.690002 4.85815 0.690002 9.99994C0.690002 15.1417 4.85821 19.3099 10 19.3099Z" fill="#9282FA" fill-opacity="0.4"/>
<path fill-rule="evenodd" clip-rule="evenodd" d="M10 5.57764C10.3856 5.57764 10.6983 5.89027 10.6983 6.27589V9.71061L12.8212 11.8337C13.0939 12.1064 13.0939 12.5484 12.8212 12.8211C12.5485 13.0938 12.1065 13.0938 11.8338 12.8211L9.50632 10.4936C9.3753 10.3627 9.30176 10.1851 9.30176 9.99989V6.27589C9.30176 5.89027 9.61439 5.57764 10 5.57764Z" fill="#9282FA"/>
</g>
<defs>
<clipPath id="clip0_3112_676">
<rect width="20" height="20" fill="white"/>
</clipPath>
</defs>
</svg>
