<svg width="20" height="20" viewBox="0 0 20 20" fill="none" xmlns="http://www.w3.org/2000/svg">
<path d="M10 10.8313L7.41386 13.424C7.2942 13.5427 7.15455 13.6021 6.99487 13.6021C6.83523 13.6021 6.69562 13.5427 6.57607 13.424C6.45732 13.3052 6.39795 13.1667 6.39795 13.0083C6.39795 12.85 6.45732 12.7115 6.57607 12.5927L9.16878 10L6.57607 7.43363C6.45732 7.31397 6.39795 7.17428 6.39795 7.01464C6.39795 6.855 6.45732 6.71539 6.57607 6.59585C6.69482 6.4771 6.83337 6.41772 6.9917 6.41772C7.15003 6.41772 7.28857 6.4771 7.40732 6.59585L10 9.18856L12.5664 6.59585C12.6729 6.4771 12.8093 6.41772 12.9755 6.41772C13.1418 6.41772 13.2847 6.4771 13.4042 6.59585C13.5229 6.7146 13.5823 6.85314 13.5823 7.01147C13.5823 7.16981 13.5229 7.30835 13.4042 7.4271L10.8115 10L13.4042 12.5862C13.5229 12.7059 13.5823 12.8455 13.5823 13.0052C13.5823 13.1648 13.5229 13.3044 13.4042 13.424C13.2854 13.5427 13.1469 13.6021 12.9886 13.6021C12.8302 13.6021 12.6917 13.5427 12.5729 13.424L10 10.8313Z" fill="#9282FA"/>
</svg>
