<svg width="20" height="20" viewBox="0 0 20 20" fill="none" xmlns="http://www.w3.org/2000/svg">
<path d="M9.03038 11.0318C5.98318 8.00189 7.0866 6.88579 7.09349 6.87891L2.91547 11.0569C3.60461 12.0958 4.50252 13.2106 5.67078 14.3724C6.84981 15.5446 8.00921 16.4148 9.10725 17.0575L13.2071 12.9577C13.2071 12.9577 12.0872 14.0713 9.03038 11.0318Z" fill="#9282FA" fill-opacity="0.4"/>
<path fill-rule="evenodd" clip-rule="evenodd" d="M13.2075 12.9575L13.6787 12.4891C14.3299 11.8414 15.3452 11.7084 16.1785 12.1614L18.1548 13.2358C19.424 13.9256 19.7037 15.6165 18.7117 16.6029L17.2422 18.0639C16.8686 18.4355 16.405 18.707 15.8718 18.7567C14.6385 18.8717 12.1012 18.8097 9.1077 17.0573L13.2075 12.9575ZM7.09394 6.87863L7.39058 6.58365C8.12152 5.8569 8.1904 4.69015 7.55271 3.83831L6.24828 2.09593C5.45907 1.04167 3.93392 0.902416 3.02936 1.80191L1.40565 3.41635C0.957097 3.8623 0.656501 4.44045 0.692997 5.08186C0.759892 6.25994 1.1615 8.41201 2.91584 11.0567L7.09394 6.87863Z" fill="#9282FA"/>
</svg>
