<svg width="20" height="20" viewBox="0 0 20 20" fill="none" xmlns="http://www.w3.org/2000/svg">
<path d="M3.28809 16.0623C3.28809 15.7036 3.57887 15.4128 3.93757 15.4128H16.0623C16.421 15.4128 16.7117 15.7036 16.7117 16.0623C16.7117 16.421 16.421 16.7118 16.0623 16.7118H3.93757C3.57887 16.7118 3.28809 16.421 3.28809 16.0623Z" fill="#027DF0"/>
<path d="M4.15405 10C4.15405 11.0201 4.4157 11.9796 4.87518 12.8146H15.1245C15.5841 11.9796 15.8457 11.0201 15.8457 10C15.8457 6.77143 13.2284 4.15417 9.99988 4.15417C6.7713 4.15417 4.15405 6.77143 4.15405 10Z" fill="#027DF0"/>
<path fill-rule="evenodd" clip-rule="evenodd" d="M5.88623 18.6604C5.88623 18.3017 6.17709 18.011 6.53579 18.011H13.4641C13.8228 18.011 14.1137 18.3017 14.1137 18.6604C14.1137 19.0191 13.8228 19.31 13.4641 19.31H6.53579C6.17709 19.31 5.88623 19.0192 5.88623 18.6604Z" fill="#16487A"/>
<path fill-rule="evenodd" clip-rule="evenodd" d="M9.99994 0.690002C10.3586 0.690002 10.6495 0.980782 10.6495 1.33956V2.20557C10.6495 2.56427 10.3586 2.85513 9.99994 2.85513C9.64124 2.85513 9.35038 2.56427 9.35038 2.20557V1.33956C9.35038 0.980782 9.64124 0.690002 9.99994 0.690002ZM0.689941 10C0.689941 9.6413 0.980721 9.35044 1.3395 9.35044H2.20551C2.56421 9.35044 2.85507 9.6413 2.85507 10C2.85507 10.3587 2.56421 10.6496 2.20551 10.6496H1.3395C0.980721 10.6496 0.689941 10.3587 0.689941 10ZM17.1448 10C17.1448 9.6413 17.4357 9.35044 17.7944 9.35044H18.6604C19.0192 9.35044 19.3099 9.6413 19.3099 10C19.3099 10.3587 19.0192 10.6496 18.6604 10.6496H17.7944C17.4357 10.6496 17.1448 10.3587 17.1448 10Z" fill="#16487A"/>
<path fill-rule="evenodd" clip-rule="evenodd" d="M4.87525 12.8146H1.3395C0.980721 12.8146 0.689941 13.1055 0.689941 13.4642C0.689941 13.8229 0.980721 14.1137 1.3395 14.1137H18.6604C19.0192 14.1137 19.3099 13.8229 19.3099 13.4642C19.3099 13.1055 19.0192 12.8146 18.6604 12.8146H4.87525Z" fill="#16487A"/>
<path d="M3.41656 3.41665C3.67021 3.163 4.08148 3.163 4.33513 3.41665L4.67531 3.75683C4.92896 4.01048 4.92896 4.42175 4.67531 4.6754C4.42166 4.92905 4.01039 4.92905 3.75674 4.6754L3.41656 4.33522C3.16291 4.08157 3.16291 3.6703 3.41656 3.41665Z" fill="#027DF0"/>
<path d="M16.5826 3.41665C16.8362 3.6703 16.8362 4.08157 16.5826 4.33522L16.2424 4.6754C15.9888 4.92905 15.5775 4.92905 15.3238 4.6754C15.0701 4.42175 15.0701 4.01048 15.3238 3.75683L15.664 3.41665C15.9177 3.163 16.3289 3.163 16.5826 3.41665Z" fill="#027DF0"/>
</svg>
